<svg aria-hidden="true" style="position: absolute; width: 0; height: 0; overflow: hidden;" focusable="false" version="1.1" xmlns="http://www.w3.org/2000/svg" xmlns:xlink="http://www.w3.org/1999/xlink"><defs>
<symbol id="icon-arrow" viewBox="0 0 32 32">
    <path fill="currentColor" d="M19.789 3.036c0.041-0.033 0.094-0.052 0.151-0.052 0.073 0 0.139 0.032 0.184 0.083l0 0 11.178 12.773c0.038 0.043 0.061 0.099 0.061 0.161s-0.023 0.118-0.061 0.161l0-0-0.528 0.601-10.648 12.17c-0.045 0.052-0.111 0.085-0.185 0.085-0.058 0-0.111-0.020-0.153-0.054l0 0-1.535-1.225c-0.056-0.045-0.092-0.114-0.092-0.191 0-0.062 0.023-0.119 0.061-0.162l8.543-9.763c0.038-0.043 0.061-0.1 0.061-0.162 0-0.135-0.109-0.244-0.244-0.244-0.001 0-0.001 0-0.002 0h-25.697c-0.135 0-0.244-0.109-0.244-0.244v-1.952c0-0.133 0.111-0.244 0.244-0.244h25.702c0.135-0 0.244-0.109 0.244-0.244 0-0.061-0.023-0.117-0.060-0.16l0 0-8.545-9.765c-0.038-0.043-0.061-0.099-0.061-0.162 0-0.077 0.036-0.146 0.092-0.191l0-0 1.531-1.22z"></path>
    <path fill="currentColor" d="M30.774 15.236v0zM30.774 16.763v0zM18.225 4.606l0.166-0.144-0.166 0.146zM18.256 4.256v0zM26.586 14.777v0zM26.77 14.373v0zM0.885 14.777v0zM0.885 17.217v0zM18.254 27.739v0zM18.223 27.386v0zM20.127 28.932v0zM19.789 28.963v0zM31.302 15.84v0zM31.302 16.161v0zM26.766 17.623v0zM26.582 17.217v0zM20.127 3.064l-0.169 0.146 0.166-0.144zM19.787 3.038l-0.135-0.175 0.138 0.173zM30.939 15.092l-10.646-12.172-0.335 0.291 10.648 12.172 0.333-0.293zM31.467 15.696l-0.528-0.603-0.333 0.293 0.526 0.603 0.333-0.293zM30.939 16.911l0.528-0.603-0.333-0.291-0.528 0.601 0.333 0.293zM20.291 29.081l10.648-12.17-0.333-0.293-10.648 12.17 0.333 0.293zM18.114 27.914l1.535 1.225 0.277-0.346-1.537-1.225-0.275 0.346zM26.597 17.479l-8.543 9.761 0.333 0.293 8.543-9.763-0.333-0.293zM26.58 16.998h-25.695v0.444h25.697v-0.444zM0.863 16.973v-1.952h-0.444v1.952h0.444zM0.885 14.999h25.702v-0.444h-25.702v0.444zM18.057 4.753l8.545 9.767 0.333-0.293-8.543-9.765-0.333 0.291zM19.652 2.863l-1.533 1.22 0.275 0.346 1.533-1.22-0.275-0.346zM18.392 4.46c-0.003-0.004-0.005-0.009-0.005-0.014 0-0.007 0.003-0.013 0.008-0.017l0-0-0.273-0.346c-0.108 0.086-0.176 0.217-0.176 0.365 0 0.117 0.043 0.224 0.114 0.306l-0-0.001 0.333-0.291zM26.586 14.999c0.257-0 0.465-0.209 0.465-0.466 0-0.117-0.043-0.225-0.115-0.307l0 0.001-0.333 0.293c0.004 0.004 0.004 0.009 0.004 0.011l-0.002 0.013c-0.002 0.004-0.005 0.007-0.009 0.009l-0 0-0.011 0.002v0.444zM0.863 15.021c0-0.012 0.010-0.022 0.022-0.022v0-0.444c-0.257 0-0.466 0.209-0.466 0.466v0h0.444zM0.885 16.996c-0.012 0-0.022-0.010-0.022-0.022v0h-0.444c0 0.257 0.209 0.466 0.466 0.466v-0.444zM18.392 27.566c-0.005-0.004-0.008-0.010-0.008-0.017s0.003-0.013 0.008-0.017l0-0-0.335-0.293c-0.072 0.082-0.116 0.189-0.116 0.308 0 0.147 0.068 0.279 0.175 0.364l0.001 0.001 0.275-0.346zM19.96 28.786c-0.004 0.005-0.011 0.009-0.018 0.009-0.005 0-0.010-0.002-0.013-0.004l0 0-0.277 0.346c0.079 0.063 0.18 0.102 0.29 0.102 0.14 0 0.265-0.061 0.35-0.159l0-0.001-0.333-0.293zM31.134 15.986c0.003 0.004 0.005 0.009 0.005 0.014s-0.002 0.011-0.005 0.014l0-0 0.333 0.291c0.071-0.081 0.115-0.189 0.115-0.306s-0.043-0.225-0.115-0.307l0 0.001-0.333 0.293zM26.932 17.77c0.072-0.082 0.117-0.19 0.117-0.308 0-0.257-0.209-0.466-0.466-0.466-0 0-0.001 0-0.001 0h0v0.444c0.009 0 0.011 0.002 0.013 0.004 0.004 0.002 0.007 0.005 0.009 0.009l0 0v0.013l-0.004 0.011 0.333 0.293zM20.291 2.92c-0.086-0.097-0.211-0.158-0.35-0.158-0.11 0-0.21 0.038-0.29 0.101l0.001-0.001 0.275 0.346c0.004-0.003 0.009-0.005 0.014-0.005 0.007 0 0.013 0.003 0.017 0.008l0 0 0.333-0.291z"></path>
</symbol>
<symbol id="icon-arrow-long" viewBox="0 0 50 32">
    <path fill="currentColor" d="M39.109 5.247c0.053-0.042 0.129-0.035 0.173 0.016l9.932 11.351c0.041 0.047 0.041 0.118 0 0.166l-9.931 11.35c-0.044 0.050-0.12 0.057-0.173 0.016l-0.791-0.631c-0.056-0.045-0.063-0.127-0.016-0.181l8.575-9.801c0.071-0.081 0.013-0.208-0.095-0.208h-45.512c-0.069 0-0.126-0.056-0.126-0.126v-1.006c0-0.070 0.056-0.126 0.126-0.126h45.514c0.108 0 0.166-0.127 0.095-0.209l-8.576-9.801c-0.047-0.054-0.040-0.136 0.016-0.181l0.79-0.629z"></path>
    <path fill="currentColor" d="M48.942 16.303v0zM48.943 17.089v0zM38.303 6.057v0zM38.32 5.876v0zM46.785 16.067v0zM46.88 15.858v0zM1.271 16.067v0zM38.319 27.514v0zM38.303 27.333v0zM39.283 28.13v0zM39.11 28.145v0zM49.214 16.613v0zM49.214 16.779v0zM46.878 17.533v0zM46.783 17.324v0zM39.282 5.263v0zM39.109 5.247v0zM49.372 15.926l-9.66-11.040-0.86 0.753 9.66 11.040 0.86-0.753zM49.644 16.237l-0.272-0.311-0.86 0.753 0.272 0.311 0.86-0.753zM49.373 17.465l0.271-0.31-0.86-0.753-0.271 0.31 0.86 0.753zM39.713 28.506l9.66-11.040-0.86-0.753-9.66 11.040 0.86 0.753zM37.962 27.961l0.791 0.631 0.712-0.894-0.791-0.631-0.712 0.894zM46.448 17.156l-8.575 9.8 0.86 0.753 8.575-9.8-0.86-0.753zM46.783 16.753h-45.512v1.143h45.512v-1.143zM1.717 17.198v-1.006h-1.143v1.006h1.143zM1.271 16.638h45.514v-1.143h-45.514v1.143zM37.873 6.433l8.576 9.801 0.86-0.753-8.576-9.801-0.86 0.753zM38.753 4.8l-0.79 0.629 0.712 0.894 0.79-0.629-0.712-0.894zM38.733 5.681c0.167 0.191 0.141 0.484-0.058 0.642l-0.712-0.894c-0.311 0.248-0.352 0.705-0.090 1.004l0.86-0.753zM46.785 16.638c0.599 0 0.919-0.706 0.525-1.156l-0.86 0.753c-0.252-0.288-0.048-0.739 0.335-0.739v1.143zM1.717 16.193c0 0.246-0.2 0.446-0.446 0.446v-1.143c-0.385 0-0.697 0.312-0.697 0.697h1.143zM1.271 16.753c0.246 0 0.446 0.2 0.446 0.446h-1.143c0 0.385 0.312 0.697 0.697 0.697v-1.143zM38.675 27.067c0.199 0.158 0.225 0.451 0.058 0.642l-0.86-0.753c-0.262 0.299-0.221 0.756 0.090 1.004l0.712-0.894zM38.853 27.753c0.157-0.179 0.427-0.204 0.613-0.055l-0.712 0.894c0.291 0.232 0.714 0.194 0.959-0.086l-0.86-0.753zM48.784 16.99c-0.147-0.168-0.147-0.419 0-0.587l0.86 0.753c0.23-0.263 0.23-0.655 0-0.918l-0.86 0.753zM47.308 17.909c0.394-0.451 0.074-1.156-0.525-1.156v1.143c-0.383 0-0.588-0.451-0.335-0.739l0.86 0.753zM39.712 4.886c-0.245-0.28-0.668-0.318-0.959-0.086l0.712 0.894c-0.186 0.148-0.456 0.124-0.613-0.055l0.86-0.753z"></path>
</symbol>
<symbol id="icon-arrow-medium" viewBox="0 0 32 32">
    <path fill="currentColor" d="M18.46 3.436l13.54 13.129-13.576 12-1.399-1.582 10.599-9.369h-27.624v-2.112h27.869l-10.879-10.549 1.47-1.516z"></path>
</symbol>
<symbol id="icon-arrow-minimal" viewBox="0 0 32 32">
    <path fill="currentColor" d="M16 19.022l12.445-14.098 3.555 4.027-16 18.126-15.999-18.126 3.555-4.027 12.445 14.098z"></path>
</symbol>
<symbol id="icon-close-lightbox" viewBox="0 0 32 32">
    <path fill="#fff" d="M16 0.205c-8.723 0-15.795 7.072-15.795 15.795s7.072 15.795 15.795 15.795c8.723 0 15.795-7.072 15.795-15.795s-7.072-15.795-15.795-15.795z"></path>
    <path fill="none" stroke="#000" stroke-width="1.6" stroke-miterlimit="4" stroke-linecap="square" stroke-linejoin="miter" d="M23.059 18.928h-4.369v4.369"></path>
    <path fill="none" stroke="#000" stroke-width="1.6" stroke-miterlimit="4" stroke-linecap="square" stroke-linejoin="miter" d="M8.705 19.553h3.745v3.745"></path>
    <path fill="none" stroke="#000" stroke-width="1.6" stroke-miterlimit="4" stroke-linecap="square" stroke-linejoin="miter" d="M8.705 12.687h3.745v-3.745"></path>
    <path fill="none" stroke="#000" stroke-width="1.6" stroke-miterlimit="4" stroke-linecap="square" stroke-linejoin="miter" d="M23.059 13.311h-4.369v-4.369"></path>
</symbol>
<symbol id="icon-close" viewBox="0 0 32 32">
    <path fill="currentColor" d="M30.178 31.087c-0.365 0.361-0.765 0.54-1.201 0.538s-0.834-0.186-1.195-0.551l-11.855-11.99-11.88 11.747c-0.365 0.361-0.765 0.54-1.201 0.538s-0.834-0.186-1.195-0.551l-0.758-0.767c-0.361-0.365-0.54-0.765-0.538-1.201s0.186-0.834 0.551-1.194l11.88-11.747-11.531-11.661c-0.361-0.365-0.54-0.765-0.538-1.201s0.186-0.834 0.551-1.195l0.821-0.812c0.365-0.361 0.765-0.54 1.201-0.538s0.834 0.186 1.195 0.551l11.531 11.661 11.935-11.801c0.365-0.361 0.765-0.54 1.201-0.538s0.834 0.186 1.195 0.551l0.758 0.766c0.361 0.365 0.54 0.765 0.538 1.201s-0.186 0.834-0.551 1.195l-11.935 11.801 11.855 11.99c0.361 0.365 0.54 0.765 0.538 1.201s-0.186 0.834-0.551 1.195l-0.821 0.812z"></path>
</symbol>
<symbol id="icon-search" viewBox="0 0 32 32">
    <path fill="currentColor" d="M25.047 22.869l6.597 6.595-2.18 2.179-6.595-6.596c-2.454 1.967-5.506 3.037-8.651 3.033-7.652 0-13.862-6.21-13.862-13.862s6.21-13.862 13.862-13.862 13.862 6.21 13.862 13.862c0.005 3.145-1.066 6.197-3.033 8.651zM21.958 21.727c1.954-2.010 3.046-4.705 3.042-7.508 0-5.958-4.825-10.782-10.782-10.782-5.958 0-10.781 4.824-10.781 10.782 0 5.956 4.824 10.781 10.781 10.781 2.804 0.005 5.498-1.087 7.508-3.042l0.231-0.231z"></path>
</symbol>
<symbol id="icon-contact-mail" viewBox="0 0 32 32">
    <path fill="currentColor" d="M1.601 1.6h28.799c0.424 0 0.831 0.169 1.131 0.469s0.468 0.707 0.468 1.131v25.599c0 0.424-0.169 0.831-0.468 1.131s-0.707 0.469-1.131 0.469h-28.799c-0.424 0-0.831-0.169-1.131-0.469s-0.469-0.707-0.469-1.131v-25.599c0-0.424 0.169-0.831 0.469-1.131s0.707-0.469 1.131-0.469zM16.096 15.493l-10.259-8.712-2.072 2.438 12.352 10.488 12.129-10.496-2.093-2.421-10.057 8.702z"></path>
</symbol>
<symbol id="icon-contact-tel" viewBox="0 0 32 32">
    <path fill="currentColor" d="M31.497 23.612v6.089c0 0.436-0.165 0.856-0.462 1.175s-0.704 0.513-1.139 0.544c-0.752 0.052-1.367 0.079-1.843 0.079-15.218 0-27.553-12.335-27.553-27.553 0-0.475 0.026-1.090 0.079-1.843 0.030-0.435 0.225-0.842 0.544-1.139s0.739-0.462 1.175-0.462h6.089c0.214-0 0.42 0.079 0.578 0.222s0.258 0.34 0.279 0.553c0.040 0.396 0.076 0.711 0.11 0.951 0.342 2.388 1.044 4.711 2.080 6.89 0.164 0.344 0.057 0.756-0.253 0.976l-3.716 2.655c2.272 5.294 6.491 9.514 11.786 11.786l2.652-3.709c0.108-0.152 0.267-0.26 0.447-0.307s0.371-0.029 0.54 0.051c2.178 1.035 4.501 1.734 6.888 2.075 0.239 0.034 0.554 0.072 0.947 0.11 0.212 0.022 0.409 0.122 0.552 0.28s0.222 0.364 0.222 0.578h-0.002z"></path>
</symbol>
<symbol id="icon-hamburger" viewBox="0 0 32 32">
    <path fill="currentColor" style="opacity:var(--icon-first-state-opacity)" d="M0 4.978h32v3.556h-32v-3.556z"></path>
    <path fill="currentColor" style="opacity:var(--icon-first-state-opacity)" d="M0 14.222h32v3.556h-32v-3.556z"></path>
    <path fill="currentColor" style="opacity:var(--icon-first-state-opacity)" d="M0 23.467h32v3.556h-32v-3.556z"></path>
    <path fill="currentColor" style="opacity:var(--icon-second-state-opacity)" d="M30.178 31.087c-0.365 0.361-0.765 0.54-1.201 0.538s-0.834-0.186-1.195-0.551l-11.855-11.99-11.88 11.747c-0.365 0.361-0.765 0.54-1.201 0.538s-0.834-0.186-1.195-0.551l-0.758-0.767c-0.361-0.365-0.54-0.765-0.538-1.201s0.186-0.834 0.551-1.194l11.88-11.747-11.531-11.661c-0.361-0.365-0.54-0.765-0.538-1.201s0.186-0.834 0.551-1.195l0.821-0.812c0.365-0.361 0.765-0.54 1.201-0.538s0.834 0.186 1.195 0.551l11.531 11.661 11.935-11.801c0.365-0.361 0.765-0.54 1.201-0.538s0.834 0.186 1.195 0.551l0.758 0.766c0.361 0.365 0.54 0.765 0.538 1.201s-0.186 0.834-0.551 1.195l-11.935 11.801 11.855 11.99c0.361 0.365 0.54 0.765 0.538 1.201s-0.186 0.834-0.551 1.195l-0.821 0.812z"></path>
</symbol>
<symbol id="icon-plus-minus" viewBox="0 0 32 32">
    <path fill="currentColor" style="opacity:var(--icon-first-state-opacity)" d="M13.696 31.38c-0.422 0-0.768-0.134-1.037-0.403-0.269-0.307-0.403-0.653-0.403-1.037v-10.542h-10.254c-0.422 0-0.787-0.134-1.094-0.403-0.269-0.269-0.403-0.614-0.403-1.037v-4.205c0-0.422 0.134-0.768 0.403-1.037 0.307-0.307 0.672-0.461 1.094-0.461h10.254v-10.196c0-0.422 0.134-0.768 0.403-1.037s0.614-0.403 1.037-0.403h4.724c0.384 0 0.71 0.134 0.979 0.403 0.307 0.269 0.461 0.614 0.461 1.037v10.196h10.196c0.422 0 0.768 0.154 1.037 0.461 0.269 0.269 0.403 0.614 0.403 1.037v4.205c0 0.422-0.134 0.768-0.403 1.037s-0.614 0.403-1.037 0.403h-10.196v10.542c0 0.384-0.154 0.73-0.461 1.037-0.269 0.269-0.595 0.403-0.979 0.403h-4.724z"></path>
    <path fill="currentColor" style="opacity:var(--icon-second-state-opacity)" d="M5.468 20.83c-0.492 0-0.894-0.157-1.207-0.47s-0.47-0.715-0.47-1.207v-6.306c0-0.492 0.157-0.894 0.47-1.207s0.716-0.47 1.207-0.47h20.996c0.492 0 0.894 0.157 1.207 0.47 0.358 0.313 0.537 0.716 0.537 1.207v6.306c0 0.492-0.179 0.894-0.537 1.207-0.313 0.313-0.715 0.47-1.207 0.47h-20.996z"></path>
</symbol>
<symbol id="icon-plus-minus-light" viewBox="0 0 32 32">
    <path fill="currentColor" style="opacity:var(--icon-first-state-opacity)" d="M15.539 31.38c-0.384 0-0.691-0.115-0.922-0.346s-0.346-0.538-0.346-0.922v-12.615h-12.5c-0.384 0-0.691-0.115-0.922-0.346s-0.346-0.538-0.346-0.922v-0.806c0-0.384 0.115-0.691 0.346-0.922s0.538-0.346 0.922-0.346h12.5v-12.27c0-0.384 0.115-0.691 0.346-0.922s0.538-0.346 0.922-0.346h0.864c0.384 0 0.691 0.115 0.922 0.346s0.346 0.538 0.346 0.922v12.27h12.558c0.384 0 0.691 0.115 0.922 0.346s0.346 0.538 0.346 0.922v0.806c0 0.384-0.115 0.691-0.346 0.922s-0.538 0.346-0.922 0.346h-12.558v12.615c0 0.384-0.115 0.691-0.346 0.922s-0.538 0.346-0.922 0.346h-0.864z"></path>
    <path fill="currentColor" style="opacity:var(--icon-second-state-opacity)" d="M4.62 18.237c-0.514 0-0.926-0.154-1.234-0.463s-0.463-0.72-0.463-1.234v-1.080c0-0.514 0.154-0.926 0.463-1.234s0.72-0.463 1.234-0.463h22.76c0.514 0 0.926 0.154 1.234 0.463s0.463 0.72 0.463 1.234v1.080c0 0.514-0.154 0.926-0.463 1.234s-0.72 0.463-1.234 0.463h-22.76z"></path>
</symbol>
<symbol id="icon-asterisk" viewBox="0 0 32 32">
    <path fill="currentColor" d="M8.698 30.936l-4.175-3.131c-0.443-0.316-0.696-0.759-0.759-1.328-0.063-0.632 0.032-1.139 0.285-1.518 0-0.063 0.19-0.285 0.569-0.664l6.832-6.263-9.299-1.044c-0.253-0.063-0.443-0.095-0.569-0.095-0.063-0.063-0.127-0.095-0.19-0.095-0.443-0.127-0.822-0.443-1.139-0.949-0.253-0.569-0.316-1.139-0.19-1.708l1.708-5.029c0.127-0.506 0.474-0.886 1.044-1.139s1.075-0.316 1.518-0.19c0.063 0 0.316 0.127 0.759 0.38l8.16 4.65-1.898-9.204c-0.063-0.253-0.095-0.411-0.095-0.474 0-0.127 0-0.221 0-0.285 0-0.506 0.19-0.981 0.569-1.423 0.443-0.443 0.949-0.664 1.518-0.664h5.219c0.569 0 1.044 0.221 1.423 0.664 0.443 0.443 0.664 0.917 0.664 1.423 0 0.063 0 0.158 0 0.285 0 0.063-0.032 0.221-0.095 0.474l-1.898 9.204 8.255-4.65c0.443-0.253 0.696-0.38 0.759-0.38 0.506-0.127 1.012-0.063 1.518 0.19 0.569 0.253 0.917 0.633 1.044 1.139l1.708 5.029c0.127 0.569 0.032 1.139-0.285 1.708-0.253 0.506-0.633 0.822-1.139 0.949-0.063 0-0.158 0.032-0.285 0.095-0.063 0-0.19 0.032-0.38 0.095l-9.394 1.044 6.927 6.263c0.38 0.38 0.569 0.601 0.569 0.664 0.316 0.38 0.443 0.886 0.38 1.518-0.063 0.569-0.348 1.012-0.854 1.328l-4.175 3.131c-0.506 0.253-1.044 0.348-1.613 0.285s-1.012-0.316-1.328-0.759c0-0.063-0.032-0.126-0.095-0.19s-0.158-0.221-0.285-0.474l-3.985-8.635-3.985 8.635c-0.063 0.253-0.158 0.411-0.285 0.474-0.063 0.063-0.095 0.127-0.095 0.19-0.253 0.443-0.696 0.696-1.328 0.759-0.569 0.063-1.107-0.032-1.613-0.285z"></path>
</symbol>
<symbol id="icon-facebook" viewBox="0 0 32 32">
    <path fill="currentColor" d="M0 16.089c0 7.955 5.777 14.569 13.333 15.911v-11.556h-4v-4.444h4v-3.556c0-4 2.577-6.221 6.223-6.221 1.155 0 2.4 0.177 3.555 0.355v4.089h-2.044c-1.956 0-2.4 0.977-2.4 2.223v3.111h4.267l-0.711 4.444h-3.556v11.556c7.556-1.341 13.333-7.955 13.333-15.911 0-8.849-7.2-16.089-16-16.089s-16 7.24-16 16.089z"></path>
</symbol>
<symbol id="icon-twitter" viewBox="0 0 32 32">
    <path fill="currentColor" d="M16 32c8.837 0 16-7.163 16-16s-7.163-16-16-16c-8.837 0-16 7.163-16 16s7.163 16 16 16zM24.55 7.728l-6.474 7.363 7.040 10.026h-5.178l-4.741-6.751-5.936 6.751h-1.534l6.789-7.721-6.789-9.668h5.178l4.489 6.393 5.621-6.393h1.534zM15.288 16.518l-5.473-7.66h2.356l10.846 15.18h-2.356l-5.373-7.52z"></path>
</symbol>
<symbol id="icon-bluesky" viewBox="0 0 32 32">
    <path fill="currentColor" d="M31.731 15.999c0 8.688-7.043 15.731-15.731 15.731s-15.731-7.043-15.731-15.731c0-8.688 7.043-15.731 15.731-15.731s15.731 7.043 15.731 15.731zM16.189 15.832c-0.94-1.82-3.502-5.211-5.884-6.883h-0c-1.719-1.207-4.503-2.14-4.503 0.831 0 0.593 0.364 4.984 0.577 5.698 0.741 2.479 3.444 3.111 5.847 2.728-4.201 0.669-5.27 2.884-2.962 5.099 4.384 4.207 6.301-1.055 6.792-2.404v-0c0.090-0.247 0.132-0.363 0.133-0.265 0.001-0.098 0.043 0.017 0.133 0.265l0 0.001c0.492 1.349 2.409 6.61 6.792 2.404 2.308-2.215 1.239-4.431-2.962-5.099 2.404 0.383 5.106-0.25 5.847-2.728 0.213-0.713 0.577-5.104 0.577-5.698 0-2.971-2.785-2.037-4.503-0.831-2.382 1.672-4.944 5.064-5.884 6.883z"></path>
</symbol>
<symbol id="icon-linkedin" viewBox="0 0 32 32">
    <path fill="currentColor" d="M31.636 16.053c0-8.698-7.052-15.75-15.75-15.75s-15.75 7.052-15.75 15.75c0 8.698 7.051 15.75 15.75 15.75s15.75-7.052 15.75-15.75zM26.278 23.41v0.002l-0.024 0.003 0.359 0.542h-0.187l-0.339-0.531h-0.215v0.53h-0.175v-1.217h0.465c0.288 0 0.427 0.11 0.427 0.343 0.001 0.006 0.001 0.012 0.001 0.018 0 0.17-0.14 0.309-0.309 0.309h-0.003zM26.076 23.287c0.186 0 0.339-0.016 0.339-0.216 0-0.174-0.151-0.196-0.284-0.196h-0.258v0.412h0.203zM19.237 21.884v-3.882c0-0.926-0.017-2.117-1.289-2.117-1.291 0-1.488 1.009-1.488 2.050v3.95h-2.478v-7.983h2.379v1.091h0.034c0.485-0.828 1.389-1.325 2.348-1.289 2.512 0 2.976 1.653 2.976 3.803l-0.001 4.378h-2.479zM9.745 11.369c0-0.79 0.649-1.439 1.439-1.439s1.439 0.649 1.439 1.438c0 0.789-0.649 1.439-1.439 1.439v0.001c-0.789 0-1.439-0.649-1.439-1.439zM9.942 21.884v-7.984h2.482v7.984h-2.482zM8.696 7.63l14.257-0.001c0.671-0.009 1.231 0.536 1.24 1.206v14.317c-0.009 0.671-0.568 1.216-1.24 1.207h-14.257c-0.669 0.007-1.226-0.538-1.234-1.207v-14.316c0.008-0.669 0.565-1.214 1.234-1.206zM24.967 23.336c0-0.622 0.507-1.135 1.13-1.141h0.023c0.621 0.006 1.13 0.519 1.13 1.141 0 0.625-0.515 1.141-1.141 1.141s-1.141-0.515-1.141-1.141zM26.080 24.346h0.043c0.537-0.012 0.969-0.463 0.957-1v-0.017c-0.009-0.542-0.458-0.983-1-0.983-0.549 0-1 0.451-1 1s0.451 1 1 1z"></path>
</symbol>
<symbol id="icon-social-facebook" viewBox="0 0 32 32">
    <path fill="currentColor" d="M17.314 26.433c2.651-0.337 5.075-1.672 6.777-3.732s2.558-4.691 2.39-7.358c-0.167-2.667-1.344-5.171-3.291-7.002s-4.518-2.852-7.191-2.855c-2.676-0.002-5.252 1.016-7.203 2.848s-3.131 4.338-3.298 7.008c-0.168 2.671 0.689 5.305 2.396 7.366s4.135 3.393 6.791 3.726v-7.804h-2.629v-2.629h2.629v-2.174c0-1.757 0.184-2.395 0.526-3.037 0.337-0.636 0.857-1.156 1.493-1.492 0.502-0.269 1.126-0.431 2.217-0.501 0.432-0.028 0.992 0.007 1.68 0.105v2.497h-0.658c-1.205 0-1.703 0.056-2 0.215-0.177 0.091-0.322 0.236-0.413 0.413-0.158 0.297-0.216 0.591-0.216 1.798v2.175h3.286l-0.657 2.629h-2.629v7.804zM16 29.143c-7.259 0-13.143-5.884-13.143-13.143s5.884-13.143 13.143-13.143c7.259 0 13.143 5.884 13.143 13.143s-5.884 13.143-13.143 13.143z"></path>
</symbol>
<symbol id="icon-social-twitter" viewBox="0 0 32 32">
    <path fill="currentColor" d="M18.032 14.368l7.943-9.034h-1.882l-6.9 7.843-5.507-7.843h-6.353l8.329 11.861-8.329 9.473h1.882l7.282-8.284 5.817 8.284h6.353zM7.894 6.722h2.891l13.307 18.625h-2.891z"></path>
</symbol>
<symbol id="icon-social-bluesky" viewBox="0 0 32 32">
    <path fill="currentColor" d="M8.145 5.846c3.18 2.294 6.6 6.945 7.855 9.441 1.256-2.496 4.675-7.147 7.855-9.441 2.294-1.655 6.011-2.936 6.011 1.139 0 0.814-0.486 6.837-0.77 7.815-0.99 3.4-4.597 4.267-7.806 3.742 5.609 0.917 7.036 3.956 3.954 6.995-5.852 5.771-8.411-1.448-9.067-3.298-0.12-0.339-0.176-0.498-0.177-0.363-0.001-0.135-0.057 0.024-0.177 0.363-0.656 1.85-3.215 9.069-9.067 3.298-3.081-3.039-1.655-6.078 3.954-6.995-3.209 0.525-6.816-0.342-7.806-3.742-0.285-0.978-0.77-7.001-0.77-7.815 0-4.075 3.717-2.795 6.011-1.139h0z"></path>
</symbol>
<symbol id="icon-social-instagram" viewBox="0 0 32 32">
    <path fill="currentColor" d="M16 3.198c-3.476 0-3.912 0.015-5.277 0.077-1.362 0.062-2.293 0.279-3.107 0.595-0.842 0.327-1.556 0.765-2.267 1.477s-1.149 1.426-1.476 2.267c-0.316 0.814-0.533 1.745-0.595 3.107-0.062 1.365-0.077 1.801-0.077 5.278s0.015 3.913 0.077 5.278c0.062 1.363 0.279 2.293 0.595 3.107 0.327 0.842 0.765 1.556 1.476 2.268s1.425 1.149 2.267 1.476c0.814 0.316 1.745 0.533 3.107 0.595 1.365 0.062 1.801 0.077 5.277 0.077s3.912-0.015 5.277-0.077c1.362-0.062 2.293-0.279 3.107-0.595 0.842-0.327 1.556-0.765 2.267-1.476s1.149-1.426 1.476-2.268c0.316-0.814 0.533-1.745 0.595-3.107 0.062-1.365 0.077-1.801 0.077-5.278s-0.015-3.913-0.077-5.278c-0.062-1.363-0.279-2.293-0.595-3.107-0.327-0.842-0.765-1.556-1.476-2.267s-1.425-1.149-2.267-1.476c-0.814-0.316-1.745-0.533-3.107-0.595-1.365-0.062-1.801-0.077-5.277-0.077zM16 5.505c3.418 0 3.823 0.013 5.172 0.075 1.248 0.057 1.926 0.265 2.377 0.441 0.598 0.232 1.024 0.51 1.472 0.958s0.725 0.874 0.958 1.472c0.175 0.451 0.384 1.129 0.441 2.377 0.062 1.35 0.075 1.755 0.075 5.173s-0.013 3.823-0.075 5.173c-0.057 1.248-0.265 1.926-0.441 2.377-0.232 0.598-0.51 1.024-0.958 1.472s-0.874 0.725-1.472 0.958c-0.451 0.175-1.129 0.384-2.377 0.441-1.35 0.062-1.754 0.075-5.172 0.075s-3.823-0.013-5.172-0.075c-1.248-0.057-1.926-0.265-2.377-0.441-0.597-0.232-1.024-0.51-1.472-0.958s-0.725-0.874-0.957-1.472c-0.175-0.451-0.384-1.129-0.441-2.377-0.062-1.35-0.075-1.755-0.075-5.173s0.013-3.823 0.075-5.173c0.057-1.248 0.265-1.926 0.441-2.377 0.232-0.598 0.51-1.024 0.957-1.472s0.874-0.725 1.472-0.958c0.451-0.175 1.129-0.384 2.377-0.441 1.35-0.062 1.755-0.075 5.172-0.075z"></path>
    <path fill="currentColor" d="M16 20.267c-2.356 0-4.267-1.91-4.267-4.267s1.91-4.267 4.267-4.267c2.356 0 4.267 1.911 4.267 4.267s-1.91 4.267-4.267 4.267zM16 9.426c-3.63 0-6.573 2.943-6.573 6.574s2.943 6.574 6.573 6.574c3.63 0 6.573-2.943 6.573-6.574s-2.943-6.574-6.573-6.574z"></path>
    <path fill="currentColor" d="M24.369 9.166c0 0.848-0.688 1.536-1.536 1.536s-1.536-0.688-1.536-1.536c0-0.848 0.688-1.536 1.536-1.536s1.536 0.688 1.536 1.536z"></path>
</symbol>
<symbol id="icon-social-youtube" viewBox="0 0 32 32">
    <path fill="currentColor" d="M25.996 9.422c-0.1-0.392-0.384-0.687-0.708-0.778-0.574-0.162-3.374-0.53-9.288-0.53s-8.711 0.368-9.291 0.53c-0.321 0.089-0.605 0.385-0.706 0.778-0.143 0.557-0.518 2.893-0.518 6.578s0.375 6.019 0.518 6.579c0.1 0.39 0.384 0.686 0.707 0.775 0.578 0.163 3.375 0.531 9.289 0.531s8.712-0.368 9.291-0.53c0.321-0.089 0.605-0.385 0.706-0.778 0.143-0.557 0.518-2.898 0.518-6.578s-0.375-6.019-0.518-6.578zM28.542 8.769c0.601 2.342 0.601 7.231 0.601 7.231s0 4.889-0.601 7.231c-0.334 1.295-1.31 2.313-2.547 2.657-2.246 0.626-9.995 0.626-9.995 0.626s-7.745 0-9.995-0.626c-1.242-0.35-2.217-1.367-2.547-2.657-0.601-2.342-0.601-7.231-0.601-7.231s0-4.889 0.601-7.231c0.334-1.295 1.31-2.313 2.547-2.658 2.25-0.626 9.995-0.626 9.995-0.626s7.749 0 9.995 0.626c1.242 0.35 2.217 1.367 2.547 2.658zM13.371 20.6v-9.2l7.886 4.6-7.886 4.6z"></path>
</symbol>


<symbol id="icon-arrow-thin" viewBox="0 0 21 46"><path d="M2 44L16.1421 29.8579C20.0474 25.9526 20.0474 19.621 16.1421 15.7157L2 1.57359" fill="none" stroke="currentColor" stroke-width="3"/></symbol>
<symbol id="icon-tick" viewBox="0 0 32 32"><path fill="#fff" d="M32 16c0 8.836-7.163 16-16 16s-16-7.163-16-16c0-8.836 7.163-16 16-16s16 7.163 16 16z"></path><path fill="#000" d="M5.718 16.186l3.543-3.543 4.531 4.531 8.776-8.777 3.545 3.545-12.116 12.118-0.045-0.047-0.204 0.203z"></path></symbol>
<symbol id="icon-play-video" viewBox="0 0 32 32">
    <path fill="#fff" d="M32 16c0 8.837-7.163 16-16 16s-16-7.163-16-16c0-8.837 7.163-16 16-16s16 7.163 16 16z"></path>
    <path fill="currentColor" d="M25.812 16l-14.718 8.498v-16.995l14.718 8.498z"></path>
</symbol>
<symbol id="icon-pause" viewBox="0 0 32 32">
    <path fill="currentColor" d="M31.629 16c0 8.632-6.997 15.629-15.629 15.629s-15.629-6.997-15.629-15.629c0-8.632 6.997-15.629 15.629-15.629s15.629 6.997 15.629 15.629z"></path>
    <path fill="#fff" d="M10.317 8.896h4.263v14.919h-4.262v-14.919z"></path>
    <path fill="#fff" d="M17.421 8.896h4.262v14.919h-4.262v-14.919z"></path>
</symbol>
<symbol id="icon-play" viewBox="0 0 32 32">
    <path fill="currentColor" d="M31.629 16c0 8.632-6.997 15.629-15.629 15.629s-15.629-6.997-15.629-15.629c0-8.632 6.997-15.629 15.629-15.629s15.629 6.997 15.629 15.629z"></path>
    <path fill="#fff" d="M10.333 8l13.333 8-13.333 8z"></path>
</symbol>
<symbol id="icon-document" viewBox="0 0 26 24">
    <rect width="25.9997" height="3.71425" fill="currentColor"/>
    <rect y="9.65723" width="25.9997" height="3.71425" fill="currentColor"/>
    <rect y="19.314" width="25.9997" height="3.71425" fill="currentColor"/></symbol>
<symbol id="icon-arrow" viewBox="0 0 32 32">
    <path fill="none" stroke="currentColor" stroke-width="5.5172" stroke-miterlimit="4" stroke-linecap="square" stroke-linejoin="miter" d="M11.916 27.754l11.67-11.67-11.67-11.67"></path>
</symbol>
<symbol id="icon-arrow-stated" viewBox="0 0 32 32">
    <path fill="none" style="opacity:var(--icon-second-state-opacity)" stroke="currentColor" stroke-width="5.5172" stroke-miterlimit="4" stroke-linecap="square" stroke-linejoin="miter" d="M11.916 27.754l11.67-11.67-11.67-11.67"></path>
    <path fill="none" stroke="currentColor" stroke-width="3" stroke-miterlimit="4" stroke-linecap="square" stroke-linejoin="miter" d="M8.916 27.754l11.67-11.67-11.67-11.67"></path>
</symbol>
<symbol id="icon-arrow-fat" viewBox="0 0 32 32">
    <path fill="none" stroke="currentColor" stroke-width="7.5172" stroke-miterlimit="4" stroke-linecap="square" stroke-linejoin="miter" d="M10.647 5.294l10.706 10.706-10.706 10.706"></path>
</symbol>
<symbol id="icon-arrow-double" viewBox="0 0 32 32">
    <path fill="none" stroke="currentColor" stroke-width="3.7996" stroke-miterlimit="4" stroke-linecap="square" stroke-linejoin="miter" d="M28.497 4.571l-12.494 12.494-12.493-12.494"></path>
    <path fill="none" stroke="currentColor" stroke-width="3.7996" stroke-miterlimit="4" stroke-linecap="square" stroke-linejoin="miter" d="M28.497 16.338l-12.494 12.493-12.493-12.493"></path>
</symbol>
<symbol id="icon-arrow-long" viewBox="0 0 22 22">
    <mask id="icon-arrow-long-a" fill="#fff" stroke="none"><path d="M.08 10.96 10.54.5 21 10.96 10.54 21.42.08 10.96Z"/></mask><path fill="currentColor" stroke="none" d="m21 10.96 1.061 1.06 1.06-1.06-1.06-1.06-1.06 1.06ZM9.48 1.56l10.46 10.46L22.06 9.9 11.601-.56 9.48 1.56ZM19.94 9.9 9.48 20.36l2.12 2.121 10.461-10.46L19.94 9.9Z" mask="url(#icon-arrow-long-a)"/><path fill="none" stroke="currentColor" stroke-width="1.5" d="M0 10.96h20.525"/>
</symbol>
<symbol id="icon-contact-location" viewBox="0 0 32 32">
    <path fill="currentColor" d="M15.549 0c-5.957 0-10.809 4.851-10.809 10.809 0 5.277 2.723 8.17 5.617 12.851l5.191 8.34 5.191-8.34c2.894-4.681 5.617-7.575 5.617-12.851 0-5.957-4.851-10.809-10.809-10.809zM15.549 4.426c3.319 0 5.957 2.723 5.957 5.957 0 3.319-2.638 5.957-5.957 5.957s-5.957-2.638-5.957-5.957c0-3.234 2.638-5.957 5.957-5.957z"></path>
</symbol>
<symbol id="icon-contact-hours" viewBox="0 0 32 32">
    <path fill="currentColor" d="M29.684 2.006h-27.368c-1.127 0-2.054 0.928-2.054 2.054v25.413c0 1.259 1.59 1.822 2.386 0.828l5.467-6.925h21.569c1.127 0 2.054-0.928 2.054-2.054v-17.262c0-1.127-0.928-2.054-2.054-2.054zM7.684 15.259c-1.392 0-2.551-1.127-2.551-2.551s1.127-2.551 2.551-2.551c1.425 0 2.551 1.127 2.551 2.551s-1.16 2.551-2.551 2.551zM16 15.259c-1.392 0-2.551-1.127-2.551-2.551s1.127-2.551 2.551-2.551c1.392 0 2.551 1.127 2.551 2.551s-1.16 2.551-2.551 2.551zM24.317 15.259c-1.392 0-2.551-1.127-2.551-2.551s1.126-2.551 2.551-2.551c1.392 0 2.551 1.127 2.551 2.551s-1.127 2.551-2.551 2.551z"></path>
</symbol>
<symbol id="icon-contact-committees" viewBox="0 0 32 32">
    <path fill="currentColor" d="M1.421 17.489l-1.248-0.334c-0.060-0.016-0.111-0.055-0.142-0.109s-0.039-0.117-0.023-0.177c0.282-1.051 1.478-5.515 2.103-7.848 0.212-0.792 1.026-1.262 1.818-1.050 1.45 0.388 3.677 0.985 5.126 1.373 0.792 0.212 1.261 1.026 1.050 1.818-0.625 2.333-1.822 6.797-2.103 7.848-0.016 0.060-0.055 0.111-0.109 0.142s-0.117 0.040-0.177 0.024l-1.248-0.335-3.378 7.95c-0.046 0.107-0.163 0.164-0.275 0.134-0.492-0.132-1.781-0.477-2.274-0.609-0.112-0.030-0.185-0.138-0.171-0.253l1.050-8.574z"></path>
    <path fill="currentColor" d="M30.581 17.489l1.248-0.334c0.060-0.016 0.111-0.055 0.142-0.109s0.039-0.117 0.023-0.177c-0.282-1.051-1.478-5.515-2.103-7.848-0.212-0.792-1.026-1.262-1.818-1.050-1.45 0.388-3.677 0.985-5.126 1.373-0.792 0.212-1.262 1.026-1.050 1.818 0.625 2.333 1.822 6.797 2.103 7.848 0.016 0.060 0.055 0.111 0.109 0.142s0.117 0.040 0.177 0.024l1.248-0.335 3.378 7.95c0.046 0.107 0.162 0.164 0.274 0.134 0.492-0.132 1.781-0.477 2.274-0.609 0.112-0.030 0.185-0.138 0.171-0.253l-1.050-8.574z"></path>
    <path fill="currentColor" d="M18.614 19.769h1.292c0.062 0 0.121-0.024 0.165-0.068s0.069-0.103 0.069-0.165c0-1.088 0-5.71 0-8.125 0-0.82-0.665-1.484-1.485-1.484-1.5 0-3.807 0-5.307 0-0.82 0-1.484 0.665-1.484 1.484 0 2.415 0 7.037 0 8.125 0 0.062 0.025 0.121 0.069 0.165s0.103 0.068 0.165 0.068h1.292l1.205 8.553c0.016 0.115 0.114 0.2 0.23 0.2 0.51 0 1.844 0 2.354 0 0.116 0 0.214-0.085 0.23-0.2l1.205-8.553z"></path>
    <path fill="currentColor" d="M8.075 2.731c1.47 0.394 2.344 1.908 1.95 3.378s-1.908 2.344-3.378 1.95c-1.47-0.394-2.344-1.908-1.95-3.378s1.908-2.344 3.378-1.95z"></path>
    <path fill="currentColor" d="M23.92 2.731c-1.47 0.394-2.344 1.908-1.95 3.378s1.908 2.344 3.378 1.95c1.47-0.394 2.344-1.908 1.95-3.378s-1.908-2.344-3.378-1.95z"></path>
    <path fill="currentColor" d="M16.002 9.306c1.523 0 2.758-1.235 2.758-2.758s-1.235-2.758-2.758-2.758c-1.523 0-2.758 1.235-2.758 2.758s1.235 2.758 2.758 2.758z"></path>
</symbol>
<symbol id="icon-contact-fax" viewBox="0 0 32 32">
    <path fill="currentColor" d="M8 2h16v4h-16v-4z"></path>
    <path fill="currentColor" d="M30 8h-28c-1.1 0-2 0.9-2 2v10c0 1.1 0.9 2 2 2h6v8h16v-8h6c1.1 0 2-0.9 2-2v-10c0-1.1-0.9-2-2-2zM4 14c-1.105 0-2-0.895-2-2s0.895-2 2-2 2 0.895 2 2-0.895 2-2 2zM22 28h-12v-10h12v10z"></path>
</symbol>
</defs></svg>
